<mxfile host="app.diagrams.net" modified="2023-12-09T03:28:10.330Z" agent="Mozilla/5.0 (Windows NT 10.0; Win64; x64) AppleWebKit/537.36 (KHTML, like Gecko) Chrome/120.0.0.0 Safari/537.36" etag="7slm-54Qhvpa7Dk4ZswV" version="22.1.7" type="google">
  <diagram name="ページ1" id="vKKa2XhO-rqXlwEqnCsN">
    <mxGraphModel grid="1" page="1" gridSize="10" guides="1" tooltips="1" connect="1" arrows="1" fold="1" pageScale="1" pageWidth="827" pageHeight="1169" math="0" shadow="0">
      <root>
        <mxCell id="0" />
        <mxCell id="1" parent="0" />
        <mxCell id="25RXct_TpmcAMPo0vKz4-2" style="edgeStyle=orthogonalEdgeStyle;rounded=0;orthogonalLoop=1;jettySize=auto;html=1;exitX=0.5;exitY=1;exitDx=0;exitDy=0;entryX=0.5;entryY=0;entryDx=0;entryDy=0;" edge="1" parent="1" source="Drb-GR1Ooc7yvZz1A3hx-1" target="25RXct_TpmcAMPo0vKz4-11">
          <mxGeometry relative="1" as="geometry">
            <mxPoint x="414" y="200" as="targetPoint" />
            <mxPoint x="414" y="120" as="sourcePoint" />
          </mxGeometry>
        </mxCell>
        <mxCell id="25RXct_TpmcAMPo0vKz4-10" style="edgeStyle=orthogonalEdgeStyle;rounded=0;orthogonalLoop=1;jettySize=auto;html=1;exitX=0.5;exitY=1;exitDx=0;exitDy=0;entryX=0.5;entryY=0;entryDx=0;entryDy=0;" edge="1" parent="1" source="25RXct_TpmcAMPo0vKz4-11" target="Drb-GR1Ooc7yvZz1A3hx-2">
          <mxGeometry relative="1" as="geometry">
            <mxPoint x="414" y="320" as="targetPoint" />
          </mxGeometry>
        </mxCell>
        <mxCell id="25RXct_TpmcAMPo0vKz4-11" value="&lt;font style=&quot;font-size: 15px;&quot;&gt;データベースを更新&lt;/font&gt;" style="rounded=1;whiteSpace=wrap;html=1;arcSize=50;" vertex="1" parent="1">
          <mxGeometry x="339" y="200" width="150" height="40" as="geometry" />
        </mxCell>
        <mxCell id="Drb-GR1Ooc7yvZz1A3hx-1" value="&lt;font style=&quot;font-size: 15px;&quot;&gt;呼び出し&lt;/font&gt;" style="rounded=1;whiteSpace=wrap;html=1;arcSize=50;" vertex="1" parent="1">
          <mxGeometry x="364" y="80" width="100" height="40" as="geometry" />
        </mxCell>
        <mxCell id="Drb-GR1Ooc7yvZz1A3hx-2" value="&lt;span style=&quot;font-size: 15px;&quot;&gt;終了&lt;/span&gt;" style="rounded=1;whiteSpace=wrap;html=1;arcSize=50;" vertex="1" parent="1">
          <mxGeometry x="364" y="320" width="100" height="40" as="geometry" />
        </mxCell>
      </root>
    </mxGraphModel>
  </diagram>
</mxfile>
